<?xml version="1.0" encoding="utf-8"?>
<!-- Generator: Adobe Illustrator 18.1.1, SVG Export Plug-In . SVG Version: 6.00 Build 0)  -->
<svg version="1.1" id="Layer_1" xmlns="http://www.w3.org/2000/svg" xmlns:xlink="http://www.w3.org/1999/xlink" x="0px" y="0px"
	 viewBox="0 0 447.8 293.2" enable-background="new 0 0 447.8 293.2" xml:space="preserve">
<path fill="#FFFFFF" stroke="#000000" stroke-miterlimit="10" d="M351.7,96.4"/>
<polyline fill="#F9B7AC" points="447.8,0.4 0,293.2 447.8,293.2 447.8,0.4 "/>
<polygon fill="#59839E" points="307.2,66 323.3,94 315.5,101.8 "/>
<polygon fill="#59839E" points="307.2,78.4 323.3,106.4 315.5,114.2 "/>
<polygon fill="#59839E" points="299.1,78.4 315.2,106.4 307.4,114.2 "/>
<polygon fill="#59839E" points="271.6,96 287.8,124 279.9,131.8 "/>
<polygon fill="#59839E" points="263.6,96 279.7,124 271.9,131.8 "/>
<polygon fill="#59839E" points="259,107.4 275.1,135.4 267.2,143.2 "/>
<polygon fill="#59839E" points="255.5,117.8 271.6,145.7 263.8,153.6 "/>
<polygon fill="#59839E" points="271.6,113.9 287.8,141.9 279.9,149.7 "/>
<polygon fill="#59839E" points="247.5,117.8 263.6,145.7 255.8,153.6 "/>
<polygon fill="#59839E" points="221.9,117.8 238,145.7 230.2,153.6 "/>
<polygon fill="#59839E" points="218.6,131.8 234.7,159.8 226.8,167.6 "/>
<polygon fill="#59839E" points="197.3,135.7 213.4,163.6 205.6,171.5 "/>
<polygon fill="#59839E" points="194.1,143.2 210.2,171.2 202.4,179 "/>
<polygon fill="#59839E" points="186,143.2 202.1,171.2 194.3,179 "/>
<polygon fill="#59839E" points="186,153.6 202.1,181.5 194.3,189.4 "/>
<polygon fill="#59839E" points="178,153.6 194.1,181.5 186.2,189.4 "/>
<polygon fill="#59839E" points="169.9,153.6 186,181.5 178.2,189.4 "/>
<polygon fill="#59839E" points="168.1,167.6 184.2,195.6 176.4,203.4 "/>
<polygon fill="#59839E" points="165.6,185.5 181.7,213.5 173.8,221.3 "/>
<polygon fill="#59839E" points="140.9,176 157,204 149.2,211.8 "/>
<polygon fill="#59839E" points="137.5,200 153.6,227.9 145.8,235.8 "/>
<polygon fill="#59839E" points="129.5,193.9 145.6,221.9 137.7,229.8 "/>
<polygon fill="#59839E" points="122.2,203.4 138.3,231.4 130.5,239.2 "/>
<polygon fill="#59839E" points="101.4,203.4 117.5,231.4 109.6,239.2 "/>
<polygon fill="#59839E" points="93.3,203.4 109.4,231.4 101.6,239.2 "/>
<polygon fill="#59839E" points="93.3,221.3 109.4,249.3 101.6,257.1 "/>
<polygon fill="#59839E" points="88.6,221.3 104.7,249.3 96.9,257.1 "/>
<polygon fill="#59839E" points="77.2,217.9 93.3,245.8 85.5,253.7 "/>
<polygon fill="#59839E" points="77.2,229.8 93.3,257.7 85.5,265.6 "/>
<polygon fill="#59839E" points="61.1,229.8 77.2,257.7 69.4,265.6 "/>
<polygon fill="#59839E" points="53.1,239.2 69.2,267.2 61.3,275 "/>
<polygon fill="#59839E" points="335.6,71.6 351.7,99.6 343.9,107.4 "/>
<polygon fill="#59839E" points="335.6,60.5 351.7,88.5 343.9,96.3 "/>
<polygon fill="#59839E" points="343.6,60.5 359.7,88.5 351.9,96.3 "/>
<polygon fill="#59839E" points="343.6,48.1 359.7,76.1 351.9,83.9 "/>
<polygon fill="#59839E" points="359.7,60.5 375.8,88.5 368,96.3 "/>
<polygon fill="#59839E" points="367.8,39 383.9,67 376.1,74.8 "/>
<polygon fill="#59839E" points="372,39 388.1,67 380.3,74.8 "/>
<polygon fill="#59839E" points="380,42.6 396.1,70.6 388.3,78.4 "/>
<polygon fill="#59839E" points="383.9,35.8 400,63.8 392.2,71.6 "/>
<polygon fill="#59839E" points="388.1,17.9 404.2,45.9 396.4,53.7 "/>
<polygon fill="#59839E" points="396.1,21.1 412.2,49.1 404.4,56.9 "/>
<polygon fill="#59839E" points="412.2,0 428.3,28 420.5,35.8 "/>
</svg>
