<?xml version="1.0" encoding="utf-8"?>
<!-- Generator: Adobe Illustrator 18.1.1, SVG Export Plug-In . SVG Version: 6.00 Build 0)  -->
<svg version="1.1" id="Layer_1" xmlns="http://www.w3.org/2000/svg" xmlns:xlink="http://www.w3.org/1999/xlink" x="0px" y="0px"
	 viewBox="0 0 324 233.5" enable-background="new 0 0 324 233.5" xml:space="preserve">
<polygon fill="#FFFFFF" points="0,0 0,233.5 324,233.5 "/>
<polygon fill="#59839E" points="35,0 18.9,28 26.7,35.8 "/>
<polygon fill="#59839E" points="35,12.4 18.9,40.4 26.7,48.2 "/>
<polygon fill="#59839E" points="43,12.4 26.9,40.4 34.8,48.2 "/>
<polygon fill="#59839E" points="66.5,41.7 50.4,69.6 58.3,77.5 "/>
<polygon fill="#59839E" points="74.6,41.7 58.5,69.6 66.3,77.5 "/>
<polygon fill="#59839E" points="79.2,53.1 63.1,81.1 70.9,88.9 "/>
<polygon fill="#59839E" points="82.6,63.5 66.5,91.4 74.4,99.3 "/>
<polygon fill="#59839E" points="66.5,59.6 50.4,87.5 58.3,95.4 "/>
<polygon fill="#59839E" points="90.7,63.5 74.6,91.4 82.4,99.3 "/>
<polygon fill="#59839E" points="116.2,63.5 100.1,91.4 108,99.3 "/>
<polygon fill="#59839E" points="119.6,77.5 103.5,105.4 111.3,113.3 "/>
<polygon fill="#59839E" points="140.8,81.4 124.7,109.3 132.6,117.2 "/>
<polygon fill="#59839E" points="144.1,88.9 128,116.9 135.8,124.7 "/>
<polygon fill="#59839E" points="152.1,88.9 136,116.9 143.9,124.7 "/>
<polygon fill="#59839E" points="152.1,99.3 136,127.2 143.9,135.1 "/>
<polygon fill="#59839E" points="160.2,99.3 144.1,127.2 151.9,135.1 "/>
<polygon fill="#59839E" points="168.2,99.3 152.1,127.2 160,135.1 "/>
<polygon fill="#59839E" points="170,113.3 153.9,141.2 161.8,149.1 "/>
<polygon fill="#59839E" points="172.6,131.2 156.5,159.1 164.4,167 "/>
<polygon fill="#59839E" points="197.3,121.7 181.2,149.7 189,157.5 "/>
<polygon fill="#59839E" points="200.6,145.7 184.5,173.6 192.4,181.5 "/>
<polygon fill="#59839E" points="208.7,139.6 192.6,167.6 200.4,175.4 "/>
<polygon fill="#59839E" points="215.9,149.1 199.8,177 207.7,184.9 "/>
<polygon fill="#59839E" points="236.8,149.1 220.7,177 228.5,184.9 "/>
<polygon fill="#59839E" points="244.8,149.1 228.7,177 236.6,184.9 "/>
<polygon fill="#59839E" points="244.8,167 228.7,195 236.6,202.8 "/>
<polygon fill="#59839E" points="249.5,167 233.4,195 241.3,202.8 "/>
<polygon fill="#59839E" points="260.9,163.6 244.8,191.5 252.7,199.4 "/>
<polygon fill="#59839E" points="260.9,175.4 244.8,203.4 252.7,211.2 "/>
<polygon fill="#59839E" points="277,175.4 260.9,203.4 268.8,211.2 "/>
<polygon fill="#59839E" points="285.1,184.9 269,212.9 276.8,220.7 "/>
</svg>
